<?xml version="1.0" encoding="UTF-8" standalone="no"?>
<!-- Created with Inkscape (http://www.inkscape.org/) -->

<svg
   xmlns:dc="http://purl.org/dc/elements/1.1/"
   xmlns:cc="http://creativecommons.org/ns#"
   xmlns:rdf="http://www.w3.org/1999/02/22-rdf-syntax-ns#"
   xmlns:svg="http://www.w3.org/2000/svg"
   xmlns="http://www.w3.org/2000/svg"
   xmlns:xlink="http://www.w3.org/1999/xlink"
   xmlns:sodipodi="http://sodipodi.sourceforge.net/DTD/sodipodi-0.dtd"
   xmlns:inkscape="http://www.inkscape.org/namespaces/inkscape"
   width="48"
   height="48"
   id="svg2"
   version="1.1"
   inkscape:version="0.48.4 r9939"
   sodipodi:docname="clock_ubuntu_2.svg"
   inkscape:export-filename="/home/andrea/.icons/MeliaeSVG/48/apps/png/appointment.png"
   inkscape:export-xdpi="240"
   inkscape:export-ydpi="240">
  <defs
     id="defs4">
    <linearGradient
       id="linearGradient3788">
      <stop
         id="stop3790"
         offset="0"
         style="stop-color:#333333;stop-opacity:1;" />
      <stop
         id="stop3792"
         offset="1"
         style="stop-color:#000000;stop-opacity:1;" />
    </linearGradient>
    <linearGradient
       id="linearGradient3748">
      <stop
         style="stop-color:#f0f0f0;stop-opacity:1;"
         offset="0"
         id="stop3750" />
      <stop
         style="stop-color:#dcdcdc;stop-opacity:1;"
         offset="1"
         id="stop3752" />
    </linearGradient>
    <linearGradient
       id="linearGradient3740">
      <stop
         style="stop-color:#dcdcdc;stop-opacity:1;"
         offset="0"
         id="stop3742" />
      <stop
         style="stop-color:#f0f0f0;stop-opacity:1;"
         offset="1"
         id="stop3744" />
    </linearGradient>
    <linearGradient
       id="linearGradient3728">
      <stop
         style="stop-color:#c8c8c8;stop-opacity:0;"
         offset="0"
         id="stop3730" />
      <stop
         id="stop3736"
         offset="0.5"
         style="stop-color:#c8c8c8;stop-opacity:1;" />
      <stop
         style="stop-color:#c8c8c8;stop-opacity:0;"
         offset="1"
         id="stop3732" />
    </linearGradient>
    <linearGradient
       id="linearGradient3720">
      <stop
         id="stop3722"
         offset="0"
         style="stop-color:#f0f0f0;stop-opacity:1;" />
      <stop
         id="stop3724"
         offset="1"
         style="stop-color:#646464;stop-opacity:1;" />
    </linearGradient>
    <linearGradient
       id="linearGradient3712">
      <stop
         style="stop-color:#646464;stop-opacity:1;"
         offset="0"
         id="stop3714" />
      <stop
         style="stop-color:#646464;stop-opacity:0;"
         offset="1"
         id="stop3716" />
    </linearGradient>
    <linearGradient
       id="linearGradient3694">
      <stop
         style="stop-color:#de220c;stop-opacity:1;"
         offset="0"
         id="stop3696" />
      <stop
         style="stop-color:#700000;stop-opacity:1;"
         offset="1"
         id="stop3698" />
    </linearGradient>
    <linearGradient
       inkscape:collect="always"
       id="linearGradient3652">
      <stop
         style="stop-color:#333333;stop-opacity:1;"
         offset="0"
         id="stop3654" />
      <stop
         style="stop-color:#333333;stop-opacity:0;"
         offset="1"
         id="stop3656" />
    </linearGradient>
    <linearGradient
       id="linearGradient3642">
      <stop
         style="stop-color:#868686;stop-opacity:1;"
         offset="0"
         id="stop3644" />
      <stop
         style="stop-color:#868686;stop-opacity:0;"
         offset="1"
         id="stop3646" />
    </linearGradient>
    <linearGradient
       id="linearGradient3634">
      <stop
         style="stop-color:#505050;stop-opacity:1;"
         offset="0"
         id="stop3636" />
      <stop
         style="stop-color:#141414;stop-opacity:1;"
         offset="1"
         id="stop3638" />
    </linearGradient>
    <linearGradient
       id="linearGradient3626">
      <stop
         style="stop-color:#ffffff;stop-opacity:1;"
         offset="0"
         id="stop3628" />
      <stop
         style="stop-color:#ffffff;stop-opacity:0;"
         offset="1"
         id="stop3630" />
    </linearGradient>
    <inkscape:perspective
       sodipodi:type="inkscape:persp3d"
       inkscape:vp_x="0 : 526.18109 : 1"
       inkscape:vp_y="0 : 1000 : 0"
       inkscape:vp_z="744.09448 : 526.18109 : 1"
       inkscape:persp3d-origin="372.04724 : 350.78739 : 1"
       id="perspective10" />
    <inkscape:perspective
       id="perspective2824"
       inkscape:persp3d-origin="0.5 : 0.33333333 : 1"
       inkscape:vp_z="1 : 0.5 : 1"
       inkscape:vp_y="0 : 1000 : 0"
       inkscape:vp_x="0 : 0.5 : 1"
       sodipodi:type="inkscape:persp3d" />
    <inkscape:perspective
       id="perspective2838"
       inkscape:persp3d-origin="0.5 : 0.33333333 : 1"
       inkscape:vp_z="1 : 0.5 : 1"
       inkscape:vp_y="0 : 1000 : 0"
       inkscape:vp_x="0 : 0.5 : 1"
       sodipodi:type="inkscape:persp3d" />
    <linearGradient
       inkscape:collect="always"
       xlink:href="#linearGradient3626"
       id="linearGradient3632"
       x1="25.982143"
       y1="-11.135761"
       x2="25.982143"
       y2="34.153687"
       gradientUnits="userSpaceOnUse" />
    <linearGradient
       inkscape:collect="always"
       xlink:href="#linearGradient3634"
       id="linearGradient3648"
       x1="23.828125"
       y1="0.6875"
       x2="23.828125"
       y2="45.15625"
       gradientUnits="userSpaceOnUse" />
    <radialGradient
       inkscape:collect="always"
       xlink:href="#linearGradient3652"
       id="radialGradient3658"
       cx="23.927988"
       cy="44.590736"
       fx="23.927988"
       fy="44.590736"
       r="10.669736"
       gradientTransform="matrix(1,0,0,0.21301775,0,35.092118)"
       gradientUnits="userSpaceOnUse" />
    <linearGradient
       inkscape:collect="always"
       xlink:href="#linearGradient3694"
       id="linearGradient3700"
       x1="-8.3482141"
       y1="18.089287"
       x2="-8.3482141"
       y2="21.392857"
       gradientUnits="userSpaceOnUse" />
    <inkscape:perspective
       id="perspective2960"
       inkscape:persp3d-origin="0.5 : 0.33333333 : 1"
       inkscape:vp_z="1 : 0.5 : 1"
       inkscape:vp_y="0 : 1000 : 0"
       inkscape:vp_x="0 : 0.5 : 1"
       sodipodi:type="inkscape:persp3d" />
    <linearGradient
       inkscape:collect="always"
       xlink:href="#linearGradient3740"
       id="linearGradient3746"
       x1="17.882042"
       y1="12.390839"
       x2="36.372311"
       y2="39.871662"
       gradientUnits="userSpaceOnUse" />
    <linearGradient
       inkscape:collect="always"
       xlink:href="#linearGradient3748"
       id="linearGradient3754"
       x1="14.90297"
       y1="9.0560265"
       x2="37.980713"
       y2="41.051117"
       gradientUnits="userSpaceOnUse" />
    <linearGradient
       inkscape:collect="always"
       xlink:href="#linearGradient3788"
       id="linearGradient3786"
       gradientUnits="userSpaceOnUse"
       x1="14.90297"
       y1="9.0560265"
       x2="37.980713"
       y2="41.051117" />
  </defs>
  <sodipodi:namedview
     id="base"
     pagecolor="#ffffff"
     bordercolor="#666666"
     borderopacity="1.0"
     inkscape:pageopacity="0.0"
     inkscape:pageshadow="2"
     inkscape:zoom="11.2"
     inkscape:cx="63.107807"
     inkscape:cy="9.7253089"
     inkscape:document-units="px"
     inkscape:current-layer="layer1"
     showgrid="false"
     inkscape:window-width="1920"
     inkscape:window-height="1148"
     inkscape:window-x="0"
     inkscape:window-y="0"
     inkscape:window-maximized="1" />
  <metadata
     id="metadata7">
    <rdf:RDF>
      <cc:Work
         rdf:about="">
        <dc:format>image/svg+xml</dc:format>
        <dc:type
           rdf:resource="http://purl.org/dc/dcmitype/StillImage" />
        <dc:title></dc:title>
      </cc:Work>
    </rdf:RDF>
  </metadata>
  <g
     inkscape:label="Livello 1"
     inkscape:groupmode="layer"
     id="layer1"
     transform="translate(0,-1004.3622)">
    <path
       sodipodi:type="arc"
       style="fill:url(#radialGradient3658);fill-opacity:1;stroke:none"
       id="path3650"
       sodipodi:cx="23.927988"
       sodipodi:cy="44.590736"
       sodipodi:rx="10.669736"
       sodipodi:ry="2.2728431"
       d="m 34.597724,44.590736 c 0,1.255257 -4.777004,2.272844 -10.669736,2.272844 -5.892732,0 -10.669736,-1.017587 -10.669736,-2.272844 0,-1.255256 4.777004,-2.272843 10.669736,-2.272843 5.892732,0 10.669736,1.017587 10.669736,2.272843 z"
       transform="matrix(1.3598295,0,0,1.3598295,-8.709859,988.31714)" />
    <path
       style="fill:url(#linearGradient3648);fill-opacity:1;stroke:none"
       d="M 23.84375 0.6875 C 11.565277 0.6875 1.59375 10.627777 1.59375 22.90625 C 1.59375 35.184723 11.565277 45.15625 23.84375 45.15625 C 36.122223 45.15625 46.0625 35.184723 46.0625 22.90625 C 46.0625 10.627777 36.122223 0.6875 23.84375 0.6875 z M 23.84375 4.25 C 34.149778 4.25 42.5 12.600222 42.5 22.90625 C 42.5 33.212278 34.149778 41.5625 23.84375 41.5625 C 13.537722 41.5625 5.1875 33.212278 5.1875 22.90625 C 5.1875 12.600222 13.537722 4.25 23.84375 4.25 z "
       id="path2844"
       transform="translate(0,1004.3622)" />
    <path
       transform="matrix(1.0088435,0,0,1.0088435,-2.3837916,1002.009)"
       d="m 46.071428,25.053572 c 0,11.095005 -8.994279,20.089285 -20.089285,20.089285 -11.095005,0 -20.0892845,-8.99428 -20.0892845,-20.089285 0,-11.095006 8.9942795,-20.0892852 20.0892845,-20.0892852 11.095006,0 20.089285,8.9942792 20.089285,20.0892852 z"
       sodipodi:ry="20.089285"
       sodipodi:rx="20.089285"
       sodipodi:cy="25.053572"
       sodipodi:cx="25.982143"
       id="path3784"
       style="fill:url(#linearGradient3786);fill-opacity:1.0;stroke:none"
       sodipodi:type="arc" />
    <path
       sodipodi:type="arc"
       style="fill:url(#linearGradient3754);fill-opacity:1;stroke:none"
       id="path3620"
       sodipodi:cx="25.982143"
       sodipodi:cy="25.053572"
       sodipodi:rx="20.089285"
       sodipodi:ry="20.089285"
       d="m 46.071428,25.053572 c 0,11.095005 -8.994279,20.089285 -20.089285,20.089285 -11.095005,0 -20.0892845,-8.99428 -20.0892845,-20.089285 0,-11.095006 8.9942795,-20.0892852 20.0892845,-20.0892852 11.095006,0 20.089285,8.9942792 20.089285,20.0892852 z"
       transform="matrix(0.97113114,0,0,0.97113114,-1.4039436,1002.9538)" />
    <path
       transform="matrix(0.94577782,0,0,0.94577782,-0.74520995,1003.589)"
       d="m 46.071428,25.053572 c 0,11.095005 -8.994279,20.089285 -20.089285,20.089285 -11.095005,0 -20.0892845,-8.99428 -20.0892845,-20.089285 0,-11.095006 8.9942795,-20.0892852 20.0892845,-20.0892852 11.095006,0 20.089285,8.9942792 20.089285,20.0892852 z"
       sodipodi:ry="20.089285"
       sodipodi:rx="20.089285"
       sodipodi:cy="25.053572"
       sodipodi:cx="25.982143"
       id="path3738"
       style="fill:url(#linearGradient3746);fill-opacity:1;stroke:none"
       sodipodi:type="arc" />
    <path
       style="fill:#141414;fill-opacity:1;stroke:none"
       d="m 5.0291598,1026.7554 c -0.00452,0.1775 -0.031542,0.3499 -0.031542,0.5287 0,0.1787 0.027032,0.3511 0.031542,0.5287 l 3.7568402,0 c -0.0062,-0.1744 0,-0.3527 0,-0.5287 0,-0.1802 -0.00658,-0.3503 0,-0.5287 l -3.7568402,0 z m 33.8418402,0 c 0.0066,0.1784 0,0.3485 0,0.5287 0,0.176 0.0063,0.3543 0,0.5287 l 3.756089,0 c 0.0045,-0.1776 0.03154,-0.35 0.03154,-0.5287 0,-0.1788 -0.02703,-0.3512 -0.03154,-0.5287 l -3.756089,0 z"
       id="path3660"
       sodipodi:nodetypes="csccscccsccscc" />
    <path
       id="path3680"
       d="m 23.299432,1046.0831 c 0.177708,0 0.349917,0.032 0.528678,0.032 0.178458,-4e-4 0.351111,-0.027 0.528726,-0.032 l -5.8e-5,-3.7559 c -0.174162,0.011 -0.352678,0 -0.528674,0 -0.180046,2e-4 -0.350322,0.01 -0.528679,0 l 7e-6,3.7558 0,10e-5 z m 4e-5,-33.8419 c 0.178398,-0.011 0.348478,0 0.528674,0 0.175846,-2e-4 0.354297,-0.01 0.528679,0 l -8e-6,-3.756 c -0.177776,0 -0.350001,-0.032 -0.528677,-0.032 -0.179073,-4e-4 -0.351149,0.028 -0.528727,0.032 l 5.9e-5,3.756 0,0 z"
       style="fill:#141414;fill-opacity:1;stroke:none"
       sodipodi:nodetypes="csccsccccsccsccc" />
    <text
       xml:space="preserve"
       style="font-size:48px;font-style:normal;font-variant:normal;font-weight:normal;font-stretch:normal;line-height:125%;letter-spacing:0px;word-spacing:0px;fill:#000000;fill-opacity:1;stroke:none;font-family:Scada;-inkscape-font-specification:Scada"
       x="19.516602"
       y="1033.8368"
       id="text3058-6"
       sodipodi:linespacing="125%"><tspan
         sodipodi:role="line"
         id="tspan3060-9"
         x="19.516602"
         y="1033.8368"
         style="font-size:4px;font-style:normal;font-variant:normal;font-weight:normal;font-stretch:normal;font-family:Segoe Script;-inkscape-font-specification:Segoe Script">now</tspan></text>
    <path
       style="font-size:medium;font-style:normal;font-variant:normal;font-weight:normal;font-stretch:normal;text-indent:0;text-align:start;text-decoration:none;line-height:normal;letter-spacing:normal;word-spacing:normal;text-transform:none;direction:ltr;block-progression:tb;writing-mode:lr-tb;text-anchor:start;color:#000000;fill:#141414;fill-opacity:1;stroke:none;stroke-width:1px;marker:none;visibility:visible;display:inline;overflow:visible;enable-background:accumulate;font-family:'A.C.M.E. Secret Agent';-inkscape-font-specification:'A.C.M.E. Secret Agent'"
       d="m 32.045908,1018.2853 -11.215622,11.2158 0.747838,0.7475 11.215705,-11.2158 -0.747854,-0.7476 z"
       id="path3686"
       inkscape:transform-center-y="-2.9674786"
       inkscape:transform-center-x="-2.9674105" />
    <path
       id="path3702"
       d="m 16.019289,1021.4577 10.269977,8.6176 0.679752,-0.8101 -10.270056,-8.6176 -0.67968,0.8101 z"
       style="font-size:medium;font-style:normal;font-variant:normal;font-weight:normal;font-stretch:normal;text-indent:0;text-align:start;text-decoration:none;line-height:normal;letter-spacing:normal;word-spacing:normal;text-transform:none;direction:ltr;block-progression:tb;writing-mode:lr-tb;text-anchor:start;color:#000000;fill:#141414;fill-opacity:1;stroke:none;stroke-width:1px;marker:none;visibility:visible;display:inline;overflow:visible;enable-background:accumulate;font-family:'A.C.M.E. Secret Agent';-inkscape-font-specification:'A.C.M.E. Secret Agent'"
       inkscape:transform-center-y="-1.9722286"
       inkscape:transform-center-x="2.3504971" />
    <path
       style="font-size:medium;font-style:normal;font-variant:normal;font-weight:normal;font-stretch:normal;text-indent:0;text-align:start;text-decoration:none;line-height:normal;letter-spacing:normal;word-spacing:normal;text-transform:none;direction:ltr;block-progression:tb;writing-mode:lr-tb;text-anchor:start;color:#000000;fill:#c80100;fill-opacity:1;stroke:none;stroke-width:0.5;marker:none;visibility:visible;display:inline;overflow:visible;enable-background:accumulate;font-family:'A.C.M.E. Secret Agent';-inkscape-font-specification:'A.C.M.E. Secret Agent'"
       d="m 25.350442,1024.0364 -0.496795,-0.181 -6.069225,16.6746 0.496978,0.1811 6.068997,-16.6747 z"
       id="path3704"
       inkscape:transform-center-x="1.8206761"
       inkscape:transform-center-y="5.0022" />
    <path
       sodipodi:type="arc"
       style="fill:url(#linearGradient3700);fill-opacity:1;stroke:none"
       id="path3692"
       sodipodi:cx="-8.3482141"
       sodipodi:cy="19.741072"
       sodipodi:rx="1.6517857"
       sodipodi:ry="1.6517857"
       d="m -6.6964284,19.741072 c 0,0.912256 -0.7395297,1.651785 -1.6517857,1.651785 -0.9122561,0 -1.6517858,-0.739529 -1.6517858,-1.651785 0,-0.912256 0.7395297,-1.651786 1.6517858,-1.651786 0.912256,0 1.6517857,0.73953 1.6517857,1.651786 z"
       transform="matrix(0.70606495,0,0,0.70606495,29.722506,1013.3456)" />
    <path
       sodipodi:nodetypes="csccscccsccscc"
       id="path3764"
       d="m 7.4227449,1036.4671 c 0.038086,0.075 0.055434,0.1591 0.097684,0.2323 0.0425,0.074 0.1064104,0.1302 0.1523162,0.2007 l 3.2535191,-1.8784 c -0.04637,-0.068 -0.0834,-0.1445 -0.125,-0.2165 -0.0425,-0.074 -0.0885,-0.1402 -0.125,-0.2165 l -3.2535191,1.8784 z m 29.3078941,-16.9209 c 0.04772,0.069 0.0824,0.1427 0.125,0.2165 0.0415,0.072 0.08921,0.1419 0.125,0.2165 l 3.252868,-1.8781 c -0.0381,-0.075 -0.05544,-0.1591 -0.09769,-0.2323 -0.042,-0.073 -0.106459,-0.1303 -0.152315,-0.2007 l -3.252868,1.8781 z"
       style="fill:#141414;fill-opacity:1;stroke:none" />
    <path
       style="fill:#141414;fill-opacity:1;stroke:none"
       d="m 14.212149,1043.4395 c 0.07048,0.046 0.127557,0.1101 0.200747,0.1523 0.07381,0.043 0.157254,0.06 0.23226,0.098 l 1.87843,-3.2535 c -0.07416,-0.036 -0.144477,-0.083 -0.216503,-0.125 -0.07381,-0.043 -0.146744,-0.077 -0.216503,-0.125 l -1.878431,3.2535 z m 16.920931,-29.3079 c 0.07583,0.036 0.142711,0.082 0.216503,0.125 0.07194,0.042 0.148208,0.078 0.216503,0.125 l 1.878017,-3.2529 c -0.0705,-0.046 -0.127563,-0.1101 -0.200752,-0.1523 -0.07287,-0.042 -0.157347,-0.06 -0.232259,-0.098 l -1.878016,3.2529 z"
       id="path3766"
       sodipodi:nodetypes="csccscccsccscc" />
    <path
       sodipodi:nodetypes="csccscccsccscc"
       id="path3768"
       d="m 33.010887,1043.6896 c 0.07278,-0.042 0.159342,-0.055 0.232508,-0.097 0.07413,-0.043 0.130422,-0.1065 0.201131,-0.1519 l -1.878385,-3.2535 c -0.06621,0.05 -0.144098,0.084 -0.216504,0.125 -0.07413,0.042 -0.138399,0.091 -0.216503,0.125 l 1.878383,3.2535 z m -16.920944,-29.308 c 0.06746,-0.051 0.14239,-0.083 0.216503,-0.125 0.07234,-0.041 0.139931,-0.092 0.216504,-0.125 l -1.878085,-3.2528 c -0.07279,0.042 -0.158846,0.056 -0.232011,0.098 -0.07279,0.042 -0.130491,0.1065 -0.201129,0.1519 l 1.878084,3.2529 z"
       style="fill:#141414;fill-opacity:1;stroke:none" />
    <path
       style="fill:#141414;fill-opacity:1;stroke:none"
       d="m 39.983055,1036.9004 c 0.04203,-0.073 0.110494,-0.1273 0.152858,-0.2003 0.0427,-0.074 0.0597,-0.1574 0.09823,-0.2321 l -3.25348,-1.8784 c -0.03234,0.076 -0.08279,0.1448 -0.124997,0.2165 -0.0432,0.073 -0.07436,0.148 -0.124998,0.2165 l 3.253478,1.8784 z m -29.307967,-16.921 c 0.03292,-0.078 0.08181,-0.1431 0.124997,-0.2165 0.04215,-0.072 0.07518,-0.1497 0.124998,-0.2165 l -3.2528694,-1.878 c -0.042038,0.073 -0.1095647,0.1279 -0.1519274,0.2009 -0.042038,0.073 -0.059759,0.1575 -0.098233,0.2321 l 3.2529186,1.8781 z"
       id="path3770"
       sodipodi:nodetypes="csccscccsccscc" />
  </g>
</svg>
